<mxfile host="65bd71144e">
    <diagram id="hX1dTSjSE0WMt8nQxV4P" name="Page-1">
        <mxGraphModel dx="907" dy="583" grid="1" gridSize="10" guides="1" tooltips="1" connect="1" arrows="1" fold="1" page="1" pageScale="1" pageWidth="827" pageHeight="1169" math="0" shadow="0">
            <root>
                <mxCell id="0"/>
                <mxCell id="1" parent="0"/>
                <mxCell id="13" style="edgeStyle=none;html=1;" edge="1" parent="1" source="2" target="7">
                    <mxGeometry relative="1" as="geometry">
                        <Array as="points">
                            <mxPoint x="580" y="380"/>
                        </Array>
                    </mxGeometry>
                </mxCell>
                <mxCell id="2" value="1. Azure APIs" style="rounded=0;whiteSpace=wrap;html=1;" vertex="1" parent="1">
                    <mxGeometry x="280" y="380" width="240" height="60" as="geometry"/>
                </mxCell>
                <mxCell id="3" value="JSON" style="rounded=0;whiteSpace=wrap;html=1;" vertex="1" parent="1">
                    <mxGeometry x="280" y="340" width="240" height="40" as="geometry"/>
                </mxCell>
                <mxCell id="4" value="Azure Resource Provider" style="rounded=0;whiteSpace=wrap;html=1;" vertex="1" parent="1">
                    <mxGeometry x="280" y="440" width="120" height="60" as="geometry"/>
                </mxCell>
                <mxCell id="5" value="Azure Resource Provider" style="rounded=0;whiteSpace=wrap;html=1;" vertex="1" parent="1">
                    <mxGeometry x="400" y="440" width="120" height="60" as="geometry"/>
                </mxCell>
                <mxCell id="11" style="edgeStyle=none;html=1;" edge="1" parent="1" source="6" target="2">
                    <mxGeometry relative="1" as="geometry">
                        <Array as="points">
                            <mxPoint x="220" y="370"/>
                        </Array>
                    </mxGeometry>
                </mxCell>
                <mxCell id="15" style="edgeStyle=none;html=1;" edge="1" parent="1" source="6" target="8">
                    <mxGeometry relative="1" as="geometry"/>
                </mxCell>
                <mxCell id="6" value="Azure CLI" style="rounded=0;whiteSpace=wrap;html=1;" vertex="1" parent="1">
                    <mxGeometry x="160" y="200" width="120" height="60" as="geometry"/>
                </mxCell>
                <mxCell id="7" value="ARM" style="rounded=0;whiteSpace=wrap;html=1;" vertex="1" parent="1">
                    <mxGeometry x="520" y="200" width="120" height="60" as="geometry"/>
                </mxCell>
                <mxCell id="10" style="edgeStyle=none;html=1;" edge="1" parent="1" source="8" target="7">
                    <mxGeometry relative="1" as="geometry">
                        <Array as="points"/>
                    </mxGeometry>
                </mxCell>
                <mxCell id="8" value="Bicep" style="rounded=0;whiteSpace=wrap;html=1;fillColor=#d5e8d4;strokeColor=#82b366;" vertex="1" parent="1">
                    <mxGeometry x="320" y="80" width="120" height="60" as="geometry"/>
                </mxCell>
                <mxCell id="12" value="&lt;h1&gt;ARM&lt;/h1&gt;&lt;p&gt;Explain General Behavior&lt;/p&gt;&lt;p&gt;- on create&lt;/p&gt;&lt;p&gt;- on update&lt;/p&gt;&lt;p&gt;How can you know if something has been created?&lt;/p&gt;&lt;p&gt;Dealing with defaults/missing values&lt;/p&gt;&lt;p&gt;Desired state&lt;/p&gt;&lt;p&gt;Source for Reference ARM Templates&lt;/p&gt;&lt;p&gt;Azure Quickstarts&lt;/p&gt;&lt;p&gt;Upgrade Cycle&lt;/p&gt;&lt;p&gt;API Deprecation&lt;/p&gt;&lt;p&gt;Bicep to ARM and ARM to Bicep&lt;/p&gt;&lt;p&gt;What-if functionality and Validation of ARM deployments before execution&lt;/p&gt;&lt;p&gt;- limitations and value&lt;/p&gt;" style="text;html=1;strokeColor=none;fillColor=none;spacing=5;spacingTop=-20;whiteSpace=wrap;overflow=hidden;rounded=0;" vertex="1" parent="1">
                    <mxGeometry x="597" y="300" width="230" height="490" as="geometry"/>
                </mxCell>
                <mxCell id="14" value="&lt;h1&gt;Questions&lt;/h1&gt;&lt;div&gt;&lt;span dir=&quot;ltr&quot; class=&quot;ui-provider cil cim bbs cin cio cip ciq cir cis cit ciu civ ciw cix ciy ciz cja cjb cjc cjd cje cjf cjg cjh cji cjj cjk cjl cjm cjn cjo cjp cjq cjr cjs&quot;&gt;&lt;p&gt;how do you get a keyvault key version&lt;span style=&quot;background-color: initial;&quot;&gt;&amp;nbsp;&lt;/span&gt;&lt;/p&gt;&lt;p&gt;How to create reusable modules?&lt;/p&gt;&lt;p&gt;- specify path, composable and sharable&lt;/p&gt;&lt;p&gt;how to work with it when you cannot have a private acr&lt;/p&gt;&lt;p&gt;can I create custom functions&lt;/p&gt;&lt;p&gt;-&amp;nbsp;&lt;span style=&quot;background-color: initial;&quot;&gt;deployment script&lt;/span&gt;&lt;/p&gt;&lt;p&gt;how do I &amp;nbsp;run az commands&lt;/p&gt;&lt;p&gt;- deployment script&lt;/p&gt;&lt;p&gt;how to use the docs&lt;/p&gt;&lt;p&gt;how do we find out the output of a resource&lt;/p&gt;&lt;p&gt;Bicep upgrades for new features&lt;/p&gt;&lt;p&gt;Plugins for VS Code&lt;/p&gt;&lt;p&gt;GH Copilot/OpenAI might be possible&lt;/p&gt;&lt;/span&gt;&lt;/div&gt;&lt;p&gt;&lt;span style=&quot;color: rgba(0, 0, 0, 0); font-family: monospace; font-size: 0px;&quot;&gt;%3CmxGraphModel%3E%3Croot%3E%3CmxCell%20id%3D%220%22%2F%3E%3CmxCell%20id%3D%221%22%20parent%3D%220%22%2F%3E%3CmxCell%20id%3D%222%22%20value%3D%22%26lt%3Bh1%26gt%3BARM%26lt%3B%2Fh1%26gt%3B%26lt%3Bp%26gt%3BExplain%20General%20Behavior%26lt%3B%2Fp%26gt%3B%26lt%3Bp%26gt%3B-%20on%20create%26lt%3B%2Fp%26gt%3B%26lt%3Bp%26gt%3B-%20on%20update%26lt%3B%2Fp%26gt%3B%26lt%3Bp%26gt%3BHow%20can%20you%20know%20if%20something%20has%20been%20created%3F%26lt%3B%2Fp%26gt%3B%26lt%3Bp%26gt%3BDealing%20with%20defaults%2Fmissing%20values%26lt%3B%2Fp%26gt%3B%26lt%3Bp%26gt%3BDesired%20state%26lt%3B%2Fp%26gt%3B%22%20style%3D%22text%3Bhtml%3D1%3BstrokeColor%3Dnone%3BfillColor%3Dnone%3Bspacing%3D5%3BspacingTop%3D-20%3BwhiteSpace%3Dwrap%3Boverflow%3Dhidden%3Brounded%3D0%3B%22%20vertex%3D%221%22%20parent%3D%221%22%3E%3CmxGeometry%20x%3D%22650%22%20y%3D%22220%22%20width%3D%22190%22%20height%3D%22120%22%20as%3D%22geometry%22%2F%3E%3C%2FmxCell%3E%3C%2Froot%3E%3C%2FmxGraphModel%3E&lt;/span&gt;&lt;br&gt;&lt;/p&gt;" style="text;html=1;strokeColor=none;fillColor=none;spacing=5;spacingTop=-20;whiteSpace=wrap;overflow=hidden;rounded=0;" vertex="1" parent="1">
                    <mxGeometry x="20" y="280" width="230" height="450" as="geometry"/>
                </mxCell>
                <mxCell id="17" value="Typed Model" style="rounded=1;whiteSpace=wrap;html=1;" vertex="1" parent="1">
                    <mxGeometry x="320" y="20" width="120" height="60" as="geometry"/>
                </mxCell>
                <mxCell id="19" value="&lt;h1&gt;Learning Format&lt;/h1&gt;&lt;p&gt;- Chalk and Talk with Demos&lt;/p&gt;&lt;p&gt;- 1/3 ARM/Azure API Basics&lt;/p&gt;&lt;p&gt;- 1/3 Bicep&lt;/p&gt;&lt;p&gt;- 1/3 Tie it together&lt;/p&gt;&lt;p&gt;Documentation about the Demo&lt;/p&gt;&lt;p&gt;Participants have Az CLI knowledge&lt;/p&gt;" style="text;html=1;strokeColor=none;fillColor=none;spacing=5;spacingTop=-20;whiteSpace=wrap;overflow=hidden;rounded=0;" vertex="1" parent="1">
                    <mxGeometry x="280" y="530" width="280" height="320" as="geometry"/>
                </mxCell>
            </root>
        </mxGraphModel>
    </diagram>
</mxfile>